<svg xmlns="http://www.w3.org/2000/svg"  viewBox="0 0 48 48" width="48px" height="48px"><linearGradient id="SVGID_1_" x1="38.571" x2="9.429" y1="9.429" y2="38.571" gradientUnits="userSpaceOnUse"><stop offset="0" stop-color="#fe60c1"/><stop offset=".033" stop-color="#fe6ac5"/><stop offset=".197" stop-color="#fe97d7"/><stop offset=".362" stop-color="#ffbde5"/><stop offset=".525" stop-color="#ffdaf0"/><stop offset=".687" stop-color="#ffeef9"/><stop offset=".846" stop-color="#fffbfd"/><stop offset="1" stop-color="#fff"/></linearGradient><path fill="url(#SVGID_1_)" d="M16.5,41.5h15c5.523,0,10-4.477,10-10v-15c0-5.523-4.477-10-10-10h-15c-5.523,0-10,4.477-10,10v15	C6.5,37.023,10.977,41.5,16.5,41.5z"/><path fill="none" stroke="#fa2aab" stroke-linecap="round" stroke-linejoin="round" stroke-miterlimit="10" stroke-width="3" d="M41.5,21.085V16.5c0-5.523-4.478-10-10-10h-15c-5.523,0-10,4.477-10,10v2.989"/><path fill="none" stroke="#fa2aab" stroke-linecap="round" stroke-linejoin="round" stroke-miterlimit="10" stroke-width="3" d="M6.5,25.617V31.5c0,5.522,4.477,10,10,10h15c5.522,0,10-4.478,10-10v-4.606"/><path fill="none" stroke="#fa2aab" stroke-miterlimit="10" stroke-width="3" d="M24,15.5c-4.694,0-8.5,3.806-8.5,8.5s3.806,8.5,8.5,8.5s8.5-3.806,8.5-8.5S28.694,15.5,24,15.5z"/><path fill="#fa2aab" d="M34,12c-1.105,0-2,0.895-2,2s0.895,2,2,2s2-0.895,2-2S35.105,12,34,12z"/></svg>