<svg xmlns="http://www.w3.org/2000/svg"  viewBox="0 0 48 48" width="48px" height="48px"><linearGradient id="SVGID_1_" x1="39.328" x2="8.672" y1="8.672" y2="39.328" gradientUnits="userSpaceOnUse"><stop offset="0" stop-color="#60e8fe"/><stop offset=".033" stop-color="#6ae9fe"/><stop offset=".197" stop-color="#97f0fe"/><stop offset=".362" stop-color="#bdf5ff"/><stop offset=".525" stop-color="#dafaff"/><stop offset=".687" stop-color="#eefdff"/><stop offset=".846" stop-color="#fbfeff"/><stop offset="1" stop-color="#fff"/></linearGradient><path fill="url(#SVGID_1_)" d="M36.5,40.5h-25c-2.209,0-4-1.791-4-4v-25c0-2.209,1.791-4,4-4h25c2.209,0,4,1.791,4,4v25	C40.5,38.709,38.709,40.5,36.5,40.5z"/><path fill="none" stroke="#10cfe3" stroke-linecap="round" stroke-linejoin="round" stroke-miterlimit="10" stroke-width="3" d="M40.5,31.723V36.5c0,2.209-1.791,4-4,4h-25c-2.209,0-4-1.791-4-4V24.915"/><path fill="none" stroke="#10cfe3" stroke-linecap="round" stroke-linejoin="round" stroke-miterlimit="10" stroke-width="3" d="M7.5,19.213V11.5c0-2.209,1.791-4,4-4h25c2.209,0,4,1.791,4,4v14"/><circle cx="15.5" cy="15.5" r="2.5" fill="#10cfe3"/><path fill="#10cfe3" d="M17,35h-3c-0.553,0-1-0.447-1-1V21c0-0.553,0.447-1,1-1h3c0.553,0,1,0.447,1,1v13C18,34.553,17.553,35,17,35z"/><path fill="#10cfe3" d="M29,20c-1.538,0-2.937,0.586-4,1.541V21c0-0.553-0.447-1-1-1h-3c-0.553,0-1,0.447-1,1v13c0,0.553,0.447,1,1,1	h3c0.553,0,1-0.447,1-1v-7.5c0-1.379,1.121-2.5,2.5-2.5s2.5,1.121,2.5,2.5V34c0,0.553,0.447,1,1,1h3c0.553,0,1-0.447,1-1v-8	C35,22.691,32.309,20,29,20z"/></svg>