<svg xmlns="http://www.w3.org/2000/svg"  viewBox="0 0 48 48" width="48px" height="48px"><linearGradient id="SVGID_1_" x1="39.096" x2="8.903" y1="8.903" y2="39.096" gradientUnits="userSpaceOnUse"><stop offset="0" stop-color="#6560fe"/><stop offset=".033" stop-color="#6f6afe"/><stop offset=".197" stop-color="#9a97fe"/><stop offset=".362" stop-color="#bfbdff"/><stop offset=".525" stop-color="#dbdaff"/><stop offset=".687" stop-color="#efeeff"/><stop offset=".846" stop-color="#fbfbff"/><stop offset="1" stop-color="#fff"/></linearGradient><path fill="url(#SVGID_1_)" d="M36.5,40h-25c-2.209,0-4-1.737-4-3.879V11.879C7.5,9.737,9.291,8,11.5,8h25c2.209,0,4,1.737,4,3.879v24.242	C40.5,38.263,38.709,40,36.5,40z"/><path fill="none" stroke="#8251fe" stroke-linecap="round" stroke-linejoin="round" stroke-width="3" d="M40.5,34.128V36.5c0,2.209-1.791,4-4,4h-25c-2.209,0-4-1.791-4-4V17.404"/><path fill="none" stroke="#8251fe" stroke-linecap="round" stroke-linejoin="round" stroke-width="3" d="M7.5,11.5c0-2.209,1.791-4,4-4h25c2.209,0,4,1.791,4,4v14.777"/><path fill="none" stroke="#8251fe" stroke-linecap="round" stroke-linejoin="round" stroke-width="3" d="M21,22.5c-3.038,0-5.5,2.462-5.5,5.5s2.462,5.5,5.5,5.5s5.5-2.462,5.5-5.5V14.5l0,0c0,3.314,2.686,6,6,6"/></svg>