<svg xmlns="http://www.w3.org/2000/svg"  viewBox="0 0 48 48" width="48px" height="48px"><linearGradient id="SVGID_1_" x1="38.861" x2="9.093" y1="9.545" y2="39.314" gradientUnits="userSpaceOnUse"><stop offset=".014" stop-color="#fe6d60"/><stop offset=".046" stop-color="#fe766a"/><stop offset=".208" stop-color="#fea097"/><stop offset=".37" stop-color="#ffc2bd"/><stop offset=".532" stop-color="#ffddda"/><stop offset=".692" stop-color="#fff0ee"/><stop offset=".849" stop-color="#fffbfb"/><stop offset="1" stop-color="#fff"/></linearGradient><path fill="url(#SVGID_1_)" d="M23.86,10c-6.144,0-11.916,0.469-14.989,1.125C6.823,11.594,5.054,13,4.681,15.156	c-0.371,2.25-0.744,5.125-0.744,9.344s0.373,7,0.838,9.344c0.373,2.063,2.141,3.563,4.19,4.031C12.223,38.531,17.809,39,23.953,39	s11.73-0.469,14.989-1.125c2.048-0.469,3.817-1.875,4.19-4.031c0.373-2.344,0.838-5.219,0.931-9.438	c0-4.219-0.466-7.094-0.931-9.438c-0.373-2.063-2.141-3.563-4.19-4.031C35.684,10.469,30.005,10,23.86,10L23.86,10z"/><path fill="none" stroke="#e02f24" stroke-linecap="round" stroke-linejoin="round" stroke-width="3" d="M28.79,10.093C27.206,10.034,25.549,10,23.857,10l0,0c-6.278,0-12.176,0.469-15.316,1.125	C6.448,11.594,4.641,13,4.26,15.156C3.881,17.406,3.5,20.281,3.5,24.5s0.381,7,0.856,9.344c0.381,2.063,2.188,3.563,4.281,4.031	c1.085,0.214,2.423,0.408,3.951,0.572"/><path fill="none" stroke="#e02f24" stroke-linecap="round" stroke-linejoin="round" stroke-width="3" d="M18.5,38.881C20.233,38.958,22.067,39,23.952,39c6.278,0,11.986-0.469,15.316-1.125	c2.093-0.469,3.9-1.875,4.281-4.031c0.381-2.344,0.856-5.219,0.951-9.438c0-4.219-0.476-7.094-0.951-9.438	c-0.381-2.063-2.188-3.563-4.281-4.031c-0.888-0.125-1.952-0.25-3.154-0.366"/><path fill="none" stroke="#e02f24" stroke-linecap="round" stroke-linejoin="round" stroke-width="3" d="M18.5,24v4.514c0,1.522,1.663,2.476,3,1.721l7.99-4.514c1.347-0.761,1.347-2.682,0-3.443l-7.99-4.514	c-1.337-0.755-3,0.199-3,1.721"/></svg>